<svg xmlns="http://www.w3.org/2000/svg" width="1200" height="750" viewBox="0 0 1200 750" role="img" aria-label="Беларусь у сэрцы"><defs><linearGradient id="bg" x1="0" y1="0" x2="1" y2="1"><stop offset="0" stop-color="#182d4b"/><stop offset="1" stop-color="#f7ead0"/></linearGradient><pattern id="orn" width="48" height="48" patternUnits="userSpaceOnUse"><path d="M24 4 L44 24 L24 44 L4 24 Z" fill="none" stroke="#dc4b4b" stroke-width="2" opacity="0.22"/></pattern></defs><rect width="1200" height="750" fill="url(#bg)"/><rect width="1200" height="750" fill="url(#orn)" opacity="0.55"/><rect x="54" y="54" width="1092" height="642" rx="34" fill="rgba(0,0,0,0.16)" stroke="rgba(255,255,255,0.35)" stroke-width="2"/><path d="M0 650 C190 585 380 720 600 650 C820 580 970 610 1200 520 V750 H0 Z" fill="#182d4b" opacity="0.28"/><path d="M700 590 C800 500 1000 500 1110 590 L1110 660 L700 660 Z" fill="#dc4b4b" opacity="0.8"/><path d="M770 130 L900 500 L1020 130" fill="none" stroke="#f0c75a" stroke-width="18" opacity="0.9"/><circle cx="770" cy="130" r="36" fill="#f0c75a"/><circle cx="1020" cy="130" r="36" fill="#f0c75a"/><path d="M840 300 h120 v235 h-120z" fill="#f8f2dc" opacity="0.9"/><text x="92" y="138" font-family="Arial, sans-serif" font-size="23" font-weight="700" letter-spacing="3" fill="#f0c75a">ЦЕНТР УПРАВЛЕНИЯ · DEMO</text><text x="92" y="285" font-family="Arial, sans-serif" font-size="64" font-weight="800" fill="#fffaf0">Беларусь</text><text x="92" y="363" font-family="Arial, sans-serif" font-size="64" font-weight="800" fill="#fffaf0">у сэрцы</text><text x="94" y="520" font-family="Arial, sans-serif" font-size="29" font-weight="600" fill="#fff3d8">концерт мастеров искусств</text><rect x="92" y="574" width="330" height="2" fill="#f0c75a"/><text x="92" y="625" font-family="Arial, sans-serif" font-size="24" fill="#fffaf0">Белорусская культурная программа</text></svg>
