<svg xmlns="http://www.w3.org/2000/svg" width="900" height="1350" viewBox="0 0 900 1350" role="img" aria-labelledby="title desc">
  <title id="title">Гродзенскія абрысы</title>
  <desc id="desc">Выставочная программа в Гродно</desc>
  <defs>
    <linearGradient id="bg" x1="0" y1="0" x2="1" y2="1"><stop offset="0" stop-color="#3b1726"/><stop offset="1" stop-color="#111827"/></linearGradient>
  </defs>
  <rect width="900" height="1350" fill="url(#bg)"/>
  <rect x="118" y="250" width="270" height="350" rx="18" fill="#fff7ed" opacity="0.92"/>
  <rect x="512" y="318" width="240" height="310" rx="18" fill="#fde68a" opacity="0.86"/>
  <rect x="210" y="680" width="440" height="160" rx="20" fill="#f8fafc" opacity="0.88"/>
  <path d="M168 536 L258 390 L352 536 Z" fill="#be123c" opacity="0.72"/>
  <circle cx="626" cy="468" r="74" fill="#0f172a" opacity="0.72"/>
  <g stroke="#f8fafc" stroke-width="8" opacity="0.72">
    <path d="M108 890 H790"/>
    <path d="M108 920 H790"/>
    <path d="M108 950 H790"/>
  </g>
  <rect x="64" y="70" width="772" height="1210" rx="34" fill="none" stroke="#fde68a" stroke-opacity="0.32" stroke-width="3"/>
  <text x="86" y="146" fill="#fde68a" font-family="Inter, Arial, sans-serif" font-size="31" font-weight="800" letter-spacing="3">ГРОДНО · ВЫСТАВКА</text>
  <text x="86" y="1006" fill="#ffffff" font-family="Inter, Arial, sans-serif" font-size="76" font-weight="850"><tspan x="86" dy="0">Гродзенскія</tspan><tspan x="86" dy="88">абрысы</tspan></text>
  <rect x="86" y="1162" width="210" height="10" rx="5" fill="#f59e0b"/>
  <text x="86" y="1224" fill="#ffedd5" font-family="Inter, Arial, sans-serif" font-size="28" font-weight="650">Зал, рамки и городские формы</text>
  <text x="86" y="1266" fill="#ffffff" fill-opacity="0.72" font-family="Inter, Arial, sans-serif" font-size="24">вечер современной культуры</text>
</svg>
