<svg xmlns="http://www.w3.org/2000/svg" width="1200" height="675" viewBox="0 0 1200 675">
  <defs>
    <linearGradient id="bg" x1="0" y1="0" x2="1200" y2="675">
      <stop stop-color="#020617"/>
      <stop offset="0.55" stop-color="#312e81"/>
      <stop offset="1" stop-color="#0f766e"/>
    </linearGradient>
  </defs>
  <rect width="1200" height="675" fill="url(#bg)"/>
  <g fill="#0f172a" opacity="0.88">
    <rect x="78" y="294" width="94" height="310"/>
    <rect x="194" y="238" width="118" height="366"/>
    <rect x="338" y="330" width="82" height="274"/>
    <rect x="890" y="254" width="116" height="350"/>
    <rect x="1030" y="318" width="88" height="286"/>
  </g>
  <g fill="#fde68a" opacity="0.88">
    <circle cx="245" cy="302" r="4"/><circle cx="280" cy="302" r="4"/><circle cx="245" cy="346" r="4"/><circle cx="280" cy="346" r="4"/>
    <circle cx="930" cy="318" r="4"/><circle cx="970" cy="318" r="4"/><circle cx="930" cy="366" r="4"/><circle cx="970" cy="366" r="4"/>
  </g>
  <path d="M564 160 V476 C564 522 522 552 474 535 C437 522 420 491 436 464 C453 435 493 433 530 452 V210 H720 V158 Z" fill="#f8fafc" opacity="0.95"/>
  <circle cx="470" cy="492" r="50" fill="#f8fafc"/>
  <text x="80" y="118" fill="#f8fafc" font-family="Arial, sans-serif" font-size="50" font-weight="900">Город и джаз</text>
  <text x="84" y="166" fill="#99f6e4" font-family="Arial, sans-serif" font-size="25" font-weight="700">камерный вечер</text>
  <text x="84" y="592" fill="#fde68a" font-family="Arial, sans-serif" font-size="30" font-weight="800">Гродно · ночная сцена</text>
</svg>
