<svg xmlns="http://www.w3.org/2000/svg" width="900" height="1350" viewBox="0 0 900 1350" role="img" aria-labelledby="title desc">
  <title id="title">Камерная песня роднай зямлі</title>
  <desc id="desc">Камерный концерт на сегодня</desc>
  <defs>
    <linearGradient id="bg" x1="0" y1="0" x2="1" y2="1"><stop offset="0" stop-color="#365314"/><stop offset="1" stop-color="#052e16"/></linearGradient>
  </defs>
  <rect width="900" height="1350" fill="url(#bg)"/>
  <g fill="none" stroke="#ecfccb" stroke-width="12" stroke-linecap="round" opacity="0.86">
    <path d="M344 720 C430 520 558 504 602 330"/>
    <path d="M386 626 C480 664 548 666 632 602"/>
    <path d="M322 760 C420 810 530 810 634 742"/>
    <circle cx="610" cy="320" r="42" fill="#bef264" stroke="none" opacity="0.78"/>
  </g>
  <g fill="#fefce8" opacity="0.78">
    <circle cx="230" cy="380" r="18"/>
    <circle cx="704" cy="596" r="14"/>
    <circle cx="180" cy="766" r="10"/>
  </g>
  <rect x="64" y="70" width="772" height="1210" rx="34" fill="none" stroke="#ecfccb" stroke-opacity="0.32" stroke-width="3"/>
  <text x="86" y="146" fill="#ecfccb" font-family="Inter, Arial, sans-serif" font-size="31" font-weight="800" letter-spacing="3">КАМЕРНЫЙ КОНЦЕРТ</text>
  <text x="86" y="1006" fill="#ffffff" font-family="Inter, Arial, sans-serif" font-size="76" font-weight="850"><tspan x="86" dy="0">Песня роднай</tspan><tspan x="86" dy="88">зямлі</tspan></text>
  <rect x="86" y="1162" width="210" height="10" rx="5" fill="#bef264"/>
  <text x="86" y="1224" fill="#ecfccb" font-family="Inter, Arial, sans-serif" font-size="28" font-weight="650">Филармония · камерная сцена</text>
  <text x="86" y="1266" fill="#ffffff" fill-opacity="0.72" font-family="Inter, Arial, sans-serif" font-size="24">сегодня вечером</text>
</svg>
