<svg xmlns="http://www.w3.org/2000/svg" width="1200" height="750" viewBox="0 0 1200 750" role="img" aria-label="Казкі Палесся"><defs><linearGradient id="bg" x1="0" y1="0" x2="1" y2="1"><stop offset="0" stop-color="#17372f"/><stop offset="1" stop-color="#d9f0d2"/></linearGradient><pattern id="orn" width="48" height="48" patternUnits="userSpaceOnUse"><path d="M24 4 L44 24 L24 44 L4 24 Z" fill="none" stroke="#6abf69" stroke-width="2" opacity="0.22"/></pattern></defs><rect width="1200" height="750" fill="url(#bg)"/><rect width="1200" height="750" fill="url(#orn)" opacity="0.55"/><rect x="54" y="54" width="1092" height="642" rx="34" fill="rgba(0,0,0,0.16)" stroke="rgba(255,255,255,0.35)" stroke-width="2"/><path d="M0 650 C190 585 380 720 600 650 C820 580 970 610 1200 520 V750 H0 Z" fill="#17372f" opacity="0.28"/><path d="M760 580 C830 480 900 470 990 590 L1110 590 L1110 660 L710 660 Z" fill="#6abf69" opacity="0.75"/><path d="M790 200 l-70 150 h55 l-85 175 h230 l-85-175 h55z" fill="#6abf69"/><path d="M975 180 l-60 130 h48 l-75 160 h205 l-75-160 h48z" fill="#e8c14a" opacity="0.9"/><path d="M710 610 C820 560 920 650 1100 585" fill="none" stroke="#8bd1df" stroke-width="16" opacity="0.7"/><text x="92" y="138" font-family="Arial, sans-serif" font-size="23" font-weight="700" letter-spacing="3" fill="#e8c14a">ЦЕНТР УПРАВЛЕНИЯ · DEMO</text><text x="92" y="285" font-family="Arial, sans-serif" font-size="64" font-weight="800" fill="#fffaf0">Казкі</text><text x="92" y="363" font-family="Arial, sans-serif" font-size="64" font-weight="800" fill="#fffaf0">Палесся</text><text x="94" y="520" font-family="Arial, sans-serif" font-size="29" font-weight="600" fill="#fff3d8">детская культурная программа</text><rect x="92" y="574" width="330" height="2" fill="#e8c14a"/><text x="92" y="625" font-family="Arial, sans-serif" font-size="24" fill="#fffaf0">Белорусская культурная программа</text></svg>
