<svg xmlns="http://www.w3.org/2000/svg" width="1200" height="750" viewBox="0 0 1200 750" role="img" aria-label="Кола традыцый"><defs><linearGradient id="bg" x1="0" y1="0" x2="1" y2="1"><stop offset="0" stop-color="#1f3a36"/><stop offset="1" stop-color="#f4e5c1"/></linearGradient><pattern id="orn" width="48" height="48" patternUnits="userSpaceOnUse"><path d="M24 4 L44 24 L24 44 L4 24 Z" fill="none" stroke="#d6563f" stroke-width="2" opacity="0.22"/></pattern></defs><rect width="1200" height="750" fill="url(#bg)"/><rect width="1200" height="750" fill="url(#orn)" opacity="0.55"/><rect x="54" y="54" width="1092" height="642" rx="34" fill="rgba(0,0,0,0.16)" stroke="rgba(255,255,255,0.35)" stroke-width="2"/><path d="M0 650 C190 585 380 720 600 650 C820 580 970 610 1200 520 V750 H0 Z" fill="#1f3a36" opacity="0.28"/><circle cx="890" cy="360" r="175" fill="none" stroke="#d6563f" stroke-width="22" opacity="0.8"/><circle cx="890" cy="360" r="110" fill="none" stroke="#6bb9a9" stroke-width="10" opacity="0.8"/><g transform="translate(1065.0 360.0)"><circle r="20" fill="#6bb9a9"/><path d="M0 22 v65 M-35 55 H35" stroke="#d6563f" stroke-width="12" stroke-linecap="round"/></g><g transform="translate(1013.7 483.7)"><circle r="20" fill="#6bb9a9"/><path d="M0 22 v65 M-35 55 H35" stroke="#d6563f" stroke-width="12" stroke-linecap="round"/></g><g transform="translate(890.0 535.0)"><circle r="20" fill="#6bb9a9"/><path d="M0 22 v65 M-35 55 H35" stroke="#d6563f" stroke-width="12" stroke-linecap="round"/></g><g transform="translate(766.3 483.7)"><circle r="20" fill="#6bb9a9"/><path d="M0 22 v65 M-35 55 H35" stroke="#d6563f" stroke-width="12" stroke-linecap="round"/></g><g transform="translate(715.0 360.0)"><circle r="20" fill="#6bb9a9"/><path d="M0 22 v65 M-35 55 H35" stroke="#d6563f" stroke-width="12" stroke-linecap="round"/></g><g transform="translate(766.3 236.3)"><circle r="20" fill="#6bb9a9"/><path d="M0 22 v65 M-35 55 H35" stroke="#d6563f" stroke-width="12" stroke-linecap="round"/></g><g transform="translate(890.0 185.0)"><circle r="20" fill="#6bb9a9"/><path d="M0 22 v65 M-35 55 H35" stroke="#d6563f" stroke-width="12" stroke-linecap="round"/></g><g transform="translate(1013.7 236.3)"><circle r="20" fill="#6bb9a9"/><path d="M0 22 v65 M-35 55 H35" stroke="#d6563f" stroke-width="12" stroke-linecap="round"/></g><text x="92" y="138" font-family="Arial, sans-serif" font-size="23" font-weight="700" letter-spacing="3" fill="#6bb9a9">ЦЕНТР УПРАВЛЕНИЯ · DEMO</text><text x="92" y="285" font-family="Arial, sans-serif" font-size="64" font-weight="800" fill="#fffaf0">Кола</text><text x="92" y="363" font-family="Arial, sans-serif" font-size="64" font-weight="800" fill="#fffaf0">традыцый</text><text x="94" y="520" font-family="Arial, sans-serif" font-size="29" font-weight="600" fill="#fff3d8">хореографическая программа</text><rect x="92" y="574" width="330" height="2" fill="#6bb9a9"/><text x="92" y="625" font-family="Arial, sans-serif" font-size="24" fill="#fffaf0">Белорусская культурная программа</text></svg>
