<svg xmlns="http://www.w3.org/2000/svg" width="1200" height="750" viewBox="0 0 1200 750" role="img" aria-label="Купальскі вянок"><defs><linearGradient id="bg" x1="0" y1="0" x2="1" y2="1"><stop offset="0" stop-color="#123c34"/><stop offset="1" stop-color="#f0e5bf"/></linearGradient><pattern id="orn" width="48" height="48" patternUnits="userSpaceOnUse"><path d="M24 4 L44 24 L24 44 L4 24 Z" fill="none" stroke="#58a05a" stroke-width="2" opacity="0.22"/></pattern></defs><rect width="1200" height="750" fill="url(#bg)"/><rect width="1200" height="750" fill="url(#orn)" opacity="0.55"/><rect x="54" y="54" width="1092" height="642" rx="34" fill="rgba(0,0,0,0.16)" stroke="rgba(255,255,255,0.35)" stroke-width="2"/><path d="M0 650 C190 585 380 720 600 650 C820 580 970 610 1200 520 V750 H0 Z" fill="#123c34" opacity="0.28"/><g transform="translate(900 370)"><ellipse cx="0" cy="-185" rx="20" ry="48" fill="#e2b84a" transform="rotate(0)" opacity="0.88"/><ellipse cx="0" cy="-185" rx="20" ry="48" fill="#58a05a" transform="rotate(15)" opacity="0.88"/><ellipse cx="0" cy="-185" rx="20" ry="48" fill="#e2b84a" transform="rotate(30)" opacity="0.88"/><ellipse cx="0" cy="-185" rx="20" ry="48" fill="#58a05a" transform="rotate(45)" opacity="0.88"/><ellipse cx="0" cy="-185" rx="20" ry="48" fill="#e2b84a" transform="rotate(60)" opacity="0.88"/><ellipse cx="0" cy="-185" rx="20" ry="48" fill="#58a05a" transform="rotate(75)" opacity="0.88"/><ellipse cx="0" cy="-185" rx="20" ry="48" fill="#e2b84a" transform="rotate(90)" opacity="0.88"/><ellipse cx="0" cy="-185" rx="20" ry="48" fill="#58a05a" transform="rotate(105)" opacity="0.88"/><ellipse cx="0" cy="-185" rx="20" ry="48" fill="#e2b84a" transform="rotate(120)" opacity="0.88"/><ellipse cx="0" cy="-185" rx="20" ry="48" fill="#58a05a" transform="rotate(135)" opacity="0.88"/><ellipse cx="0" cy="-185" rx="20" ry="48" fill="#e2b84a" transform="rotate(150)" opacity="0.88"/><ellipse cx="0" cy="-185" rx="20" ry="48" fill="#58a05a" transform="rotate(165)" opacity="0.88"/><ellipse cx="0" cy="-185" rx="20" ry="48" fill="#e2b84a" transform="rotate(180)" opacity="0.88"/><ellipse cx="0" cy="-185" rx="20" ry="48" fill="#58a05a" transform="rotate(195)" opacity="0.88"/><ellipse cx="0" cy="-185" rx="20" ry="48" fill="#e2b84a" transform="rotate(210)" opacity="0.88"/><ellipse cx="0" cy="-185" rx="20" ry="48" fill="#58a05a" transform="rotate(225)" opacity="0.88"/><ellipse cx="0" cy="-185" rx="20" ry="48" fill="#e2b84a" transform="rotate(240)" opacity="0.88"/><ellipse cx="0" cy="-185" rx="20" ry="48" fill="#58a05a" transform="rotate(255)" opacity="0.88"/><ellipse cx="0" cy="-185" rx="20" ry="48" fill="#e2b84a" transform="rotate(270)" opacity="0.88"/><ellipse cx="0" cy="-185" rx="20" ry="48" fill="#58a05a" transform="rotate(285)" opacity="0.88"/><ellipse cx="0" cy="-185" rx="20" ry="48" fill="#e2b84a" transform="rotate(300)" opacity="0.88"/><ellipse cx="0" cy="-185" rx="20" ry="48" fill="#58a05a" transform="rotate(315)" opacity="0.88"/><ellipse cx="0" cy="-185" rx="20" ry="48" fill="#e2b84a" transform="rotate(330)" opacity="0.88"/><ellipse cx="0" cy="-185" rx="20" ry="48" fill="#58a05a" transform="rotate(345)" opacity="0.88"/><circle r="112" fill="none" stroke="#58a05a" stroke-width="18"/><circle r="74" fill="none" stroke="#e2b84a" stroke-width="8"/></g><text x="92" y="138" font-family="Arial, sans-serif" font-size="23" font-weight="700" letter-spacing="3" fill="#e2b84a">ЦЕНТР УПРАВЛЕНИЯ · DEMO</text><text x="92" y="285" font-family="Arial, sans-serif" font-size="64" font-weight="800" fill="#fffaf0">Купальскі</text><text x="92" y="363" font-family="Arial, sans-serif" font-size="64" font-weight="800" fill="#fffaf0">вянок</text><text x="94" y="520" font-family="Arial, sans-serif" font-size="29" font-weight="600" fill="#fff3d8">областной праздник</text><rect x="92" y="574" width="330" height="2" fill="#e2b84a"/><text x="92" y="625" font-family="Arial, sans-serif" font-size="24" fill="#fffaf0">Белорусская культурная программа</text></svg>
