<svg xmlns="http://www.w3.org/2000/svg" width="1200" height="675" viewBox="0 0 1200 675">
  <defs>
    <linearGradient id="bg" x1="0" y1="0" x2="1200" y2="675">
      <stop stop-color="#020617"/>
      <stop offset="0.5" stop-color="#1e1b4b"/>
      <stop offset="1" stop-color="#7c2d12"/>
    </linearGradient>
    <linearGradient id="light" x1="0" y1="0" x2="0" y2="1">
      <stop stop-color="#f0abfc" stop-opacity="0.72"/>
      <stop offset="1" stop-color="#f0abfc" stop-opacity="0"/>
    </linearGradient>
  </defs>
  <rect width="1200" height="675" fill="url(#bg)"/>
  <path d="M168 0 L390 675 H290 L82 0 Z" fill="url(#light)" opacity="0.42"/>
  <path d="M952 0 L724 675 H624 L852 0 Z" fill="url(#light)" opacity="0.36"/>
  <path d="M0 525 C190 486 330 540 505 502 C680 464 800 438 990 488 C1078 511 1140 520 1200 498 V675 H0 Z" fill="#020617" opacity="0.82"/>
  <rect x="374" y="390" width="452" height="78" fill="#111827" stroke="#38bdf8" stroke-opacity="0.55" stroke-width="4"/>
  <g fill="#38bdf8">
    <circle cx="420" cy="424" r="9"/><circle cx="476" cy="424" r="9"/><circle cx="532" cy="424" r="9"/>
    <circle cx="668" cy="424" r="9"/><circle cx="724" cy="424" r="9"/><circle cx="780" cy="424" r="9"/>
  </g>
  <text x="78" y="120" fill="#faf5ff" font-family="Arial, sans-serif" font-size="50" font-weight="900">Эхо города</text>
  <text x="82" y="168" fill="#f0abfc" font-family="Arial, sans-serif" font-size="25" font-weight="700">мультимедийное шоу</text>
  <text x="82" y="590" fill="#bae6fd" font-family="Arial, sans-serif" font-size="30" font-weight="800">свет · сцена · ритм</text>
</svg>
