<svg xmlns="http://www.w3.org/2000/svg" width="1200" height="750" viewBox="0 0 1200 750" role="img" aria-label="Песня роднай зямлі"><defs><linearGradient id="bg" x1="0" y1="0" x2="1" y2="1"><stop offset="0" stop-color="#18213d"/><stop offset="1" stop-color="#fbf2d2"/></linearGradient><pattern id="orn" width="48" height="48" patternUnits="userSpaceOnUse"><path d="M24 4 L44 24 L24 44 L4 24 Z" fill="none" stroke="#d4a017" stroke-width="2" opacity="0.22"/></pattern></defs><rect width="1200" height="750" fill="url(#bg)"/><rect width="1200" height="750" fill="url(#orn)" opacity="0.55"/><rect x="54" y="54" width="1092" height="642" rx="34" fill="rgba(0,0,0,0.16)" stroke="rgba(255,255,255,0.35)" stroke-width="2"/><path d="M0 650 C190 585 380 720 600 650 C820 580 970 610 1200 520 V750 H0 Z" fill="#18213d" opacity="0.28"/><g opacity="0.9"><path d="M720 150 v310" stroke="#d4a017" stroke-width="16"/><circle cx="675" cy="470" r="48" fill="#d4a017"/><path d="M720 160 C840 170 850 250 750 290" fill="none" stroke="#5fb5a5" stroke-width="18"/><path d="M620 230 H1030 M610 285 H1020 M600 340 H1010 M590 395 H1000" stroke="#d4a017" stroke-width="4" opacity="0.35"/></g><text x="92" y="138" font-family="Arial, sans-serif" font-size="23" font-weight="700" letter-spacing="3" fill="#5fb5a5">ЦЕНТР УПРАВЛЕНИЯ · DEMO</text><text x="92" y="285" font-family="Arial, sans-serif" font-size="64" font-weight="800" fill="#fffaf0">Песня</text><text x="92" y="363" font-family="Arial, sans-serif" font-size="64" font-weight="800" fill="#fffaf0">роднай зямлі</text><text x="94" y="520" font-family="Arial, sans-serif" font-size="29" font-weight="600" fill="#fff3d8">академическая и народная музыка</text><rect x="92" y="574" width="330" height="2" fill="#5fb5a5"/><text x="92" y="625" font-family="Arial, sans-serif" font-size="24" fill="#fffaf0">Белорусская культурная программа</text></svg>
