<svg xmlns="http://www.w3.org/2000/svg" width="1200" height="750" viewBox="0 0 1200 750" role="img" aria-label="Сцэна Беларусі"><defs><linearGradient id="bg" x1="0" y1="0" x2="1" y2="1"><stop offset="0" stop-color="#301621"/><stop offset="1" stop-color="#f5d6b7"/></linearGradient><pattern id="orn" width="48" height="48" patternUnits="userSpaceOnUse"><path d="M24 4 L44 24 L24 44 L4 24 Z" fill="none" stroke="#c24040" stroke-width="2" opacity="0.22"/></pattern></defs><rect width="1200" height="750" fill="url(#bg)"/><rect width="1200" height="750" fill="url(#orn)" opacity="0.55"/><rect x="54" y="54" width="1092" height="642" rx="34" fill="rgba(0,0,0,0.16)" stroke="rgba(255,255,255,0.35)" stroke-width="2"/><path d="M0 650 C190 585 380 720 600 650 C820 580 970 610 1200 520 V750 H0 Z" fill="#301621" opacity="0.28"/><path d="M705 90 C760 185 760 510 705 660 L1130 660 L1130 90 Z" fill="#c24040" opacity="0.92"/><path d="M760 120 C830 260 830 500 760 640" fill="none" stroke="#f0b44d" stroke-width="10" opacity="0.75"/><path d="M850 170 h180 v320 c-45 45-135 45-180 0z" fill="#201019" opacity="0.65"/><circle cx="910" cy="285" r="16" fill="#f0b44d"/><circle cx="970" cy="285" r="16" fill="#f0b44d"/><text x="92" y="138" font-family="Arial, sans-serif" font-size="23" font-weight="700" letter-spacing="3" fill="#f0b44d">ЦЕНТР УПРАВЛЕНИЯ · DEMO</text><text x="92" y="285" font-family="Arial, sans-serif" font-size="64" font-weight="800" fill="#fffaf0">Сцэна</text><text x="92" y="363" font-family="Arial, sans-serif" font-size="64" font-weight="800" fill="#fffaf0">Беларусі</text><text x="94" y="520" font-family="Arial, sans-serif" font-size="29" font-weight="600" fill="#fff3d8">театральный форум</text><rect x="92" y="574" width="330" height="2" fill="#f0b44d"/><text x="92" y="625" font-family="Arial, sans-serif" font-size="24" fill="#fffaf0">Белорусская культурная программа</text></svg>
