<svg xmlns="http://www.w3.org/2000/svg" width="1200" height="750" viewBox="0 0 1200 750" role="img" aria-label="Сяброўства культур"><defs><linearGradient id="bg" x1="0" y1="0" x2="1" y2="1"><stop offset="0" stop-color="#1d2f42"/><stop offset="1" stop-color="#f2e1ce"/></linearGradient><pattern id="orn" width="48" height="48" patternUnits="userSpaceOnUse"><path d="M24 4 L44 24 L24 44 L4 24 Z" fill="none" stroke="#4aa3a2" stroke-width="2" opacity="0.22"/></pattern></defs><rect width="1200" height="750" fill="url(#bg)"/><rect width="1200" height="750" fill="url(#orn)" opacity="0.55"/><rect x="54" y="54" width="1092" height="642" rx="34" fill="rgba(0,0,0,0.16)" stroke="rgba(255,255,255,0.35)" stroke-width="2"/><path d="M0 650 C190 585 380 720 600 650 C820 580 970 610 1200 520 V750 H0 Z" fill="#1d2f42" opacity="0.28"/><circle cx="820" cy="360" r="130" fill="none" stroke="#4aa3a2" stroke-width="32" opacity="0.82"/><circle cx="990" cy="360" r="130" fill="none" stroke="#d85c52" stroke-width="32" opacity="0.82"/><path d="M735 540 C825 610 995 610 1080 540" fill="none" stroke="#f7f1df" stroke-width="18" opacity="0.9"/><path d="M810 215 C885 170 960 170 1035 215" fill="none" stroke="#f7f1df" stroke-width="14" opacity="0.65"/><text x="92" y="138" font-family="Arial, sans-serif" font-size="23" font-weight="700" letter-spacing="3" fill="#d85c52">ЦЕНТР УПРАВЛЕНИЯ · DEMO</text><text x="92" y="285" font-family="Arial, sans-serif" font-size="64" font-weight="800" fill="#fffaf0">Сяброўства</text><text x="92" y="363" font-family="Arial, sans-serif" font-size="64" font-weight="800" fill="#fffaf0">культур</text><text x="94" y="520" font-family="Arial, sans-serif" font-size="29" font-weight="600" fill="#fff3d8">международная программа</text><rect x="92" y="574" width="330" height="2" fill="#d85c52"/><text x="92" y="625" font-family="Arial, sans-serif" font-size="24" fill="#fffaf0">Белорусская культурная программа</text></svg>
