<svg xmlns="http://www.w3.org/2000/svg" width="1200" height="750" viewBox="0 0 1200 750" role="img" aria-label="Слуцкие пояса"><defs><linearGradient id="bg" x1="0" y1="0" x2="1" y2="1"><stop offset="0" stop-color="#4b1d24"/><stop offset="1" stop-color="#f5e8c8"/></linearGradient><pattern id="orn" width="48" height="48" patternUnits="userSpaceOnUse"><path d="M24 4 L44 24 L24 44 L4 24 Z" fill="none" stroke="#b92535" stroke-width="2" opacity="0.22"/></pattern></defs><rect width="1200" height="750" fill="url(#bg)"/><rect width="1200" height="750" fill="url(#orn)" opacity="0.55"/><rect x="54" y="54" width="1092" height="642" rx="34" fill="rgba(0,0,0,0.16)" stroke="rgba(255,255,255,0.35)" stroke-width="2"/><path d="M0 650 C190 585 380 720 600 650 C820 580 970 610 1200 520 V750 H0 Z" fill="#4b1d24" opacity="0.28"/><g transform="translate(695 90)"><rect width="380" height="570" rx="18" fill="#f5e8c8" opacity="0.95"/><path d="M30 30 V540" stroke="#254c86" stroke-width="18" opacity="0.9"/><path d="M70 30 V540" stroke="#b92535" stroke-width="18" opacity="0.9"/><path d="M110 30 V540" stroke="#254c86" stroke-width="18" opacity="0.9"/><path d="M150 30 V540" stroke="#b92535" stroke-width="18" opacity="0.9"/><path d="M190 30 V540" stroke="#254c86" stroke-width="18" opacity="0.9"/><path d="M230 30 V540" stroke="#b92535" stroke-width="18" opacity="0.9"/><path d="M270 30 V540" stroke="#254c86" stroke-width="18" opacity="0.9"/><path d="M310 30 V540" stroke="#b92535" stroke-width="18" opacity="0.9"/><path d="M350 30 V540" stroke="#254c86" stroke-width="18" opacity="0.9"/><path d="M25 55 H355" stroke="#b92535" stroke-width="10" opacity="0.72"/><path d="M25 107 H355" stroke="#254c86" stroke-width="10" opacity="0.72"/><path d="M25 159 H355" stroke="#b92535" stroke-width="10" opacity="0.72"/><path d="M25 211 H355" stroke="#254c86" stroke-width="10" opacity="0.72"/><path d="M25 263 H355" stroke="#b92535" stroke-width="10" opacity="0.72"/><path d="M25 315 H355" stroke="#254c86" stroke-width="10" opacity="0.72"/><path d="M25 367 H355" stroke="#b92535" stroke-width="10" opacity="0.72"/><path d="M25 419 H355" stroke="#254c86" stroke-width="10" opacity="0.72"/><path d="M25 471 H355" stroke="#b92535" stroke-width="10" opacity="0.72"/><path d="M25 523 H355" stroke="#254c86" stroke-width="10" opacity="0.72"/><path d="M90 70 l40 40 -40 40 -40-40zM245 415 l40 40 -40 40 -40-40z" fill="#ffffff" opacity="0.85"/></g><text x="92" y="138" font-family="Arial, sans-serif" font-size="23" font-weight="700" letter-spacing="3" fill="#254c86">ЦЕНТР УПРАВЛЕНИЯ · DEMO</text><text x="92" y="285" font-family="Arial, sans-serif" font-size="64" font-weight="800" fill="#fffaf0">Слуцкие</text><text x="92" y="363" font-family="Arial, sans-serif" font-size="64" font-weight="800" fill="#fffaf0">пояса</text><text x="94" y="520" font-family="Arial, sans-serif" font-size="29" font-weight="600" fill="#fff3d8">фестиваль ремёсел</text><rect x="92" y="574" width="330" height="2" fill="#254c86"/><text x="92" y="625" font-family="Arial, sans-serif" font-size="24" fill="#fffaf0">Белорусская культурная программа</text></svg>
