<svg xmlns="http://www.w3.org/2000/svg" width="1200" height="750" viewBox="0 0 1200 750" role="img" aria-label="Спадчына і сучаснасць"><defs><linearGradient id="bg" x1="0" y1="0" x2="1" y2="1"><stop offset="0" stop-color="#263147"/><stop offset="1" stop-color="#f1eee6"/></linearGradient><pattern id="orn" width="48" height="48" patternUnits="userSpaceOnUse"><path d="M24 4 L44 24 L24 44 L4 24 Z" fill="none" stroke="#7f8ba8" stroke-width="2" opacity="0.22"/></pattern></defs><rect width="1200" height="750" fill="url(#bg)"/><rect width="1200" height="750" fill="url(#orn)" opacity="0.55"/><rect x="54" y="54" width="1092" height="642" rx="34" fill="rgba(0,0,0,0.16)" stroke="rgba(255,255,255,0.35)" stroke-width="2"/><path d="M0 650 C190 585 380 720 600 650 C820 580 970 610 1200 520 V750 H0 Z" fill="#263147" opacity="0.28"/><g transform="translate(710 190)"><path d="M40 120 L210 20 L380 120 Z" fill="#c79d55"/><rect x="55" y="120" width="310" height="35" fill="#7f8ba8"/><rect x="80" y="155" width="45" height="260" fill="#f1eee6" opacity="0.9"/><rect x="165" y="155" width="45" height="260" fill="#f1eee6" opacity="0.9"/><rect x="250" y="155" width="45" height="260" fill="#f1eee6" opacity="0.9"/><rect x="55" y="415" width="310" height="45" fill="#7f8ba8"/></g><circle cx="1015" cy="205" r="54" fill="none" stroke="#c79d55" stroke-width="10"/><text x="92" y="138" font-family="Arial, sans-serif" font-size="23" font-weight="700" letter-spacing="3" fill="#c79d55">ЦЕНТР УПРАВЛЕНИЯ · DEMO</text><text x="92" y="285" font-family="Arial, sans-serif" font-size="64" font-weight="800" fill="#fffaf0">Спадчына</text><text x="92" y="363" font-family="Arial, sans-serif" font-size="64" font-weight="800" fill="#fffaf0">і сучаснасць</text><text x="94" y="520" font-family="Arial, sans-serif" font-size="29" font-weight="600" fill="#fff3d8">выставочная программа</text><rect x="92" y="574" width="330" height="2" fill="#c79d55"/><text x="92" y="625" font-family="Arial, sans-serif" font-size="24" fill="#fffaf0">Белорусская культурная программа</text></svg>
