<svg xmlns="http://www.w3.org/2000/svg" width="1200" height="675" viewBox="0 0 1200 675">
  <defs>
    <linearGradient id="sky" x1="0" y1="0" x2="0" y2="675">
      <stop stop-color="#67e8f9"/>
      <stop offset="0.62" stop-color="#fef3c7"/>
      <stop offset="1" stop-color="#fb7185"/>
    </linearGradient>
  </defs>
  <rect width="1200" height="675" fill="url(#sky)"/>
  <circle cx="1010" cy="118" r="88" fill="#facc15"/>
  <path d="M0 478 C160 410 295 475 438 442 C610 402 732 342 915 398 C1038 436 1112 492 1200 454 V675 H0 Z" fill="#14532d"/>
  <path d="M168 455 L306 230 L444 455 Z" fill="#0f172a" opacity="0.88"/>
  <path d="M258 455 L398 245 L540 455 Z" fill="#1e293b" opacity="0.88"/>
  <rect x="250" y="455" width="300" height="36" fill="#020617"/>
  <g fill="#f8fafc">
    <circle cx="300" cy="502" r="8"/>
    <circle cx="345" cy="514" r="8"/>
    <circle cx="392" cy="500" r="8"/>
    <circle cx="438" cy="516" r="8"/>
    <circle cx="488" cy="502" r="8"/>
  </g>
  <text x="74" y="120" fill="#0f172a" font-family="Arial, sans-serif" font-size="52" font-weight="900">Летний импульс</text>
  <text x="78" y="168" fill="#164e63" font-family="Arial, sans-serif" font-size="25" font-weight="700">open-air фестиваль</text>
  <text x="78" y="590" fill="#f8fafc" font-family="Arial, sans-serif" font-size="30" font-weight="800">Парк Победы · дневная сцена</text>
</svg>
