<svg xmlns="http://www.w3.org/2000/svg" width="1200" height="750" viewBox="0 0 1200 750" role="img" aria-label="Фестиваль «Васільковы край»"><defs><linearGradient id="bg" x1="0" y1="0" x2="1" y2="1"><stop offset="0" stop-color="#163c54"/><stop offset="1" stop-color="#f3f6e8"/></linearGradient><pattern id="orn" width="48" height="48" patternUnits="userSpaceOnUse"><path d="M24 4 L44 24 L24 44 L4 24 Z" fill="none" stroke="#5aa7d8" stroke-width="2" opacity="0.22"/></pattern></defs><rect width="1200" height="750" fill="url(#bg)"/><rect width="1200" height="750" fill="url(#orn)" opacity="0.55"/><rect x="54" y="54" width="1092" height="642" rx="34" fill="rgba(0,0,0,0.16)" stroke="rgba(255,255,255,0.35)" stroke-width="2"/><path d="M0 650 C190 585 380 720 600 650 C820 580 970 610 1200 520 V750 H0 Z" fill="#163c54" opacity="0.28"/><g transform="translate(760 130)"><ellipse cx="76.0" cy="0.0" rx="22" ry="54" fill="#5aa7d8" opacity="0.88" transform="rotate(0)"/><ellipse cx="58.2" cy="48.8" rx="22" ry="54" fill="#5aa7d8" opacity="0.88" transform="rotate(40)"/><ellipse cx="13.2" cy="74.8" rx="22" ry="54" fill="#5aa7d8" opacity="0.88" transform="rotate(80)"/><ellipse cx="-38.0" cy="65.8" rx="22" ry="54" fill="#5aa7d8" opacity="0.88" transform="rotate(120)"/><ellipse cx="-71.4" cy="26.0" rx="22" ry="54" fill="#5aa7d8" opacity="0.88" transform="rotate(160)"/><ellipse cx="-71.4" cy="-25.9" rx="22" ry="54" fill="#5aa7d8" opacity="0.88" transform="rotate(200)"/><ellipse cx="-38.1" cy="-65.8" rx="22" ry="54" fill="#5aa7d8" opacity="0.88" transform="rotate(240)"/><ellipse cx="13.1" cy="-74.9" rx="22" ry="54" fill="#5aa7d8" opacity="0.88" transform="rotate(280)"/><ellipse cx="58.2" cy="-48.9" rx="22" ry="54" fill="#5aa7d8" opacity="0.88" transform="rotate(320)"/><circle r="28" fill="#f5d45c"/><path d="M-10 110 C-40 190 -80 260 -150 330" stroke="#5aa7d8" stroke-width="10" fill="none" opacity="0.8"/></g><text x="92" y="138" font-family="Arial, sans-serif" font-size="23" font-weight="700" letter-spacing="3" fill="#f5d45c">ЦЕНТР УПРАВЛЕНИЯ · DEMO</text><text x="92" y="285" font-family="Arial, sans-serif" font-size="64" font-weight="800" fill="#fffaf0">Фестиваль</text><text x="92" y="363" font-family="Arial, sans-serif" font-size="54" font-weight="800" fill="#fffaf0">«Васільковы край»</text><text x="94" y="520" font-family="Arial, sans-serif" font-size="29" font-weight="600" fill="#fff3d8">народное творчество</text><rect x="92" y="574" width="330" height="2" fill="#f5d45c"/><text x="92" y="625" font-family="Arial, sans-serif" font-size="24" fill="#fffaf0">Белорусская культурная программа</text></svg>
